<svg xmlns="http://www.w3.org/2000/svg" viewBox="0 0 512 512"><path fill="#ffda2d" d="M271 211V93.1l-15 27L155.5 301H241v117.9l15-27L356.5 211zm0 0"/><path fill="#fdbf00" d="M356.5 211L256 391.9V120.1l15-27V211zm0 0"/><path fill="#6cb" d="M444.89 85.12l20-20-53-10.6-68.03-25.61 25.8 68.96 10.41 52.06 22.32-22.32C432.55 161.95 451 206.81 451 256c0 42.43-13.77 81.62-36.88 113.66l43.34 42.27C490.9 368.79 512 314.8 512 256c0-65.83-26.16-125.64-67.11-170.88zm0 0"/><path fill="#b3f2e7" d="M468.1 358.9L457.6 412l-10.8 52.8L427 445c-45.3 40.8-105.3 67-171 67-58.8 0-112.8-21.1-156-54.4l42.3-43.5C174.4 437.2 213.7 451 256 451c49.2 0 93.9-18.3 128.4-48.6l-22.2-22.2 51.9-10.5zm0 0"/><path fill="#73e6d3" d="M468.1 358.9L457.6 412l-10.8 52.8L427 445c-45.3 40.8-105.3 67-171 67v-61c49.2 0 93.9-18.3 128.4-48.6l-22.2-22.2 51.9-10.5zm0 0M142.35 414.13l-10.42-52.06-22.32 22.32C79.45 350.05 61 305.19 61 256c0-42.43 13.77-81.61 36.87-113.66L54.52 100.1C21.09 143.23 0 197.21 0 256c0 65.83 26.16 125.63 67.11 170.87l-20 20.01 53 10.6 53.03 10.61zm0 0"/><path fill="#b3f2e7" d="M358.9 43.9l10.8 54C337.6 74.8 298.3 61 256 61c-49.2 0-93.9 18.3-128.4 48.6l22.2 22.2-51.9 10.5-54 10.8L54.4 100l10.8-52.8L85 67C130.3 26.2 190.3 0 256 0c58.8 0 112.8 21.1 156 54.4zm0 0"/><path fill="#73e6d3" d="M369.7 97.9C337.6 74.8 298.3 61 256 61V0c58.8 0 112.8 21.1 156 54.4l-53.1-10.5zm0 0"/></svg>