<svg height="512pt" viewBox="0 0 512 512" width="512pt" xmlns="http://www.w3.org/2000/svg"><path d="m271 211v-117.898438l-15 26.996094-100.5 180.902344h85.5v117.898438l15-27 100.5-180.898438zm0 0" fill="#ffda2d"/><path d="m356.5 211-100.5 180.898438v-271.800782l15-26.996094v117.898438zm0 0" fill="#fdbf00"/><path d="m444.886719 85.121094 20.011719-20.003906-53-10.601563-68.039063-25.609375 25.792969 68.964844 10.417968 52.058594 22.324219-22.316407c30.15625 34.339844 48.605469 79.199219 48.605469 128.386719 0 42.429688-13.773438 81.617188-36.875 113.664062l43.339844 42.265626c33.433594-43.136719 54.535156-97.128907 54.535156-155.929688 0-65.828125-26.160156-125.636719-67.113281-170.878906zm0 0" fill="#6cb"/><path d="m468.101562 358.898438-10.503906 53.101562-10.796875 52.796875-19.800781-19.796875c-45.300781 40.800781-105.300781 67-171 67-58.800781 0-112.800781-21.101562-156-54.402344l42.300781-43.5c32.101563 23.101563 71.398438 36.902344 113.699219 36.902344 49.199219 0 93.898438-18.300781 128.402344-48.601562l-22.203125-22.199219 51.902343-10.5zm0 0" fill="#b3f2e7"/><path d="m468.101562 358.898438-10.503906 53.101562-10.796875 52.796875-19.800781-19.796875c-45.300781 40.800781-105.300781 67-171 67v-61c49.199219 0 93.898438-18.300781 128.402344-48.601562l-22.203125-22.199219 51.902343-10.5zm0 0" fill="#73e6d3"/><path d="m142.347656 414.128906-10.417968-52.058594-22.324219 22.316407c-30.15625-34.339844-48.605469-79.199219-48.605469-128.386719 0-42.425781 13.773438-81.613281 36.871094-113.65625l-43.355469-42.242188c-33.421875 43.128907-54.515625 97.109376-54.515625 155.898438 0 65.828125 26.160156 125.632812 67.113281 170.875l-20.011719 20.007812 53 10.601563 53.039063 10.609375zm0 0" fill="#73e6d3"/><path d="m358.898438 43.898438 10.800781 54c-32.101563-23.097657-71.398438-36.898438-113.699219-36.898438-49.199219 0-93.898438 18.300781-128.402344 48.601562l22.203125 22.199219-51.902343 10.5-54 10.800781 10.503906-53.101562 10.796875-52.800781 19.800781 19.800781c45.300781-40.800781 105.300781-67 171-67 58.800781 0 112.800781 21.097656 156 54.398438zm0 0" fill="#b3f2e7"/><path d="m369.699219 97.898438c-32.101563-23.097657-71.398438-36.898438-113.699219-36.898438v-61c58.800781 0 112.800781 21.097656 156 54.398438l-53.101562-10.5zm0 0" fill="#73e6d3"/></svg>